<svg width="600" height="339" viewBox="0 0 600 339" fill="none" xmlns="http://www.w3.org/2000/svg">
<rect width="600" height="338.564" fill="#1A1D23"/>
<path d="M206.839 165.44C206.248 161.034 202.698 158.31 196.657 158.31C190.539 158.31 186.507 161.143 186.522 165.751C186.507 169.332 188.764 171.652 193.435 172.586L197.576 173.411C199.662 173.831 200.612 174.594 200.643 175.793C200.612 177.21 199.071 178.222 196.751 178.222C194.384 178.222 192.812 177.21 192.407 175.264L185.884 175.606C186.507 180.183 190.399 183.001 196.735 183.001C202.932 183.001 207.369 179.841 207.384 175.124C207.369 171.667 205.111 169.597 200.472 168.647L196.144 167.775C193.917 167.293 193.092 166.53 193.108 165.378C193.092 163.945 194.711 163.011 196.766 163.011C199.071 163.011 200.441 164.272 200.768 165.814L206.839 165.44Z" fill="#F8F8F8"/>
<path d="M211.56 191.502H218.193V178.704H218.395C219.314 180.697 221.322 182.924 225.183 182.924C230.632 182.924 234.882 178.611 234.882 170.609C234.882 162.389 230.445 158.31 225.199 158.31C221.197 158.31 219.283 160.692 218.395 162.638H218.099V158.621H211.56V191.502ZM218.053 170.578C218.053 166.312 219.859 163.587 223.081 163.587C226.366 163.587 228.11 166.436 228.11 170.578C228.11 174.75 226.335 177.646 223.081 177.646C219.89 177.646 218.053 174.843 218.053 170.578Z" fill="#F8F8F8"/>
<path d="M246.123 182.986C249.657 182.986 251.945 181.445 253.113 179.218H253.3V182.534H259.59V166.405C259.59 160.707 254.763 158.31 249.439 158.31C243.71 158.31 239.942 161.05 239.023 165.409L245.157 165.907C245.609 164.319 247.026 163.151 249.408 163.151C251.665 163.151 252.957 164.288 252.957 166.25V166.343C252.957 167.884 251.323 168.087 247.166 168.491C242.433 168.927 238.183 170.515 238.183 175.855C238.183 180.588 241.561 182.986 246.123 182.986ZM248.022 178.409C245.983 178.409 244.519 177.459 244.519 175.637C244.519 173.769 246.06 172.851 248.396 172.524C249.844 172.321 252.21 171.979 253.004 171.449V173.987C253.004 176.494 250.933 178.409 248.022 178.409Z" fill="#F8F8F8"/>
<path d="M275.54 183.001C281.907 183.001 285.908 179.265 286.22 173.769H279.961C279.572 176.322 277.89 177.755 275.617 177.755C272.519 177.755 270.511 175.155 270.511 170.578C270.511 166.063 272.535 163.478 275.617 163.478C278.046 163.478 279.603 165.082 279.961 167.464H286.22C285.939 161.937 281.751 158.31 275.508 158.31C268.253 158.31 263.77 163.338 263.77 170.671C263.77 177.942 268.176 183.001 275.54 183.001Z" fill="#F8F8F8"/>
<path d="M301.364 183.001C307.28 183.001 311.266 180.121 312.2 175.684L306.066 175.279C305.396 177.101 303.684 178.051 301.473 178.051C298.157 178.051 296.055 175.855 296.055 172.29V172.275H312.34V170.453C312.34 162.326 307.42 158.31 301.099 158.31C294.062 158.31 289.501 163.307 289.501 170.687C289.501 178.269 294 183.001 301.364 183.001ZM296.055 168.165C296.195 165.44 298.266 163.26 301.208 163.26C304.088 163.26 306.081 165.315 306.097 168.165H296.055Z" fill="#F8F8F8"/>
<path d="M329.387 158.621H324.888V152.892H318.256V158.621H314.987V163.603H318.256V176.058C318.225 180.744 321.416 183.064 326.227 182.861C327.94 182.799 329.154 182.456 329.823 182.239L328.78 177.303C328.453 177.366 327.753 177.521 327.13 177.521C325.807 177.521 324.888 177.023 324.888 175.186V163.603H329.387V158.621Z" fill="#F8F8F8"/>
<path d="M333.708 182.534H340.34V169.005C340.34 166.063 342.488 164.039 345.415 164.039C346.334 164.039 347.595 164.195 348.218 164.397V158.512C347.626 158.372 346.801 158.278 346.131 158.278C343.454 158.278 341.258 159.835 340.387 162.793H340.138V158.621H333.708V182.534Z" fill="#F8F8F8"/>
<path d="M357.781 182.986C361.315 182.986 363.603 181.445 364.771 179.218H364.958V182.534H371.247V166.405C371.247 160.707 366.421 158.31 361.097 158.31C355.368 158.31 351.6 161.05 350.681 165.409L356.815 165.907C357.267 164.319 358.684 163.151 361.066 163.151C363.323 163.151 364.615 164.288 364.615 166.25V166.343C364.615 167.884 362.981 168.087 358.824 168.491C354.091 168.927 349.841 170.515 349.841 175.855C349.841 180.588 353.219 182.986 357.781 182.986ZM359.68 178.409C357.641 178.409 356.177 177.459 356.177 175.637C356.177 173.769 357.718 172.851 360.054 172.524C361.502 172.321 363.868 171.979 364.662 171.449V173.987C364.662 176.494 362.591 178.409 359.68 178.409Z" fill="#F8F8F8"/>
<path d="M397.831 158.621H390.809L385.859 175.731H385.61L380.643 158.621H373.637L381.998 182.534H389.471L397.831 158.621Z" fill="#F8F8F8"/>
<path d="M411.309 183.001C417.225 183.001 421.211 180.121 422.145 175.684L416.011 175.279C415.342 177.101 413.629 178.051 411.418 178.051C408.102 178.051 406 175.855 406 172.29V172.275H422.285V170.453C422.285 162.326 417.366 158.31 411.045 158.31C404.008 158.31 399.446 163.307 399.446 170.687C399.446 178.269 403.945 183.001 411.309 183.001ZM406 168.165C406.141 165.44 408.211 163.26 411.154 163.26C414.034 163.26 416.027 165.315 416.042 168.165H406Z" fill="#F8F8F8"/>
<path d="M433.245 150.65H426.613V182.534H433.245V150.65Z" fill="#F8F8F8"/>
<path d="M438.558 182.534H445.19V158.621H438.558V182.534ZM441.89 155.538C443.867 155.538 445.486 154.028 445.486 152.176C445.486 150.338 443.867 148.828 441.89 148.828C439.928 148.828 438.309 150.338 438.309 152.176C438.309 154.028 439.928 155.538 441.89 155.538Z" fill="#F8F8F8"/>
<path d="M457.135 168.709C457.151 165.627 458.988 163.821 461.666 163.821C464.328 163.821 465.932 165.565 465.916 168.491V182.534H472.548V167.308C472.548 161.735 469.279 158.31 464.297 158.31C460.747 158.31 458.179 160.053 457.104 162.84H456.824V158.621H450.503V182.534H457.135V168.709Z" fill="#F8F8F8"/>
<path d="M488.549 192C495.384 192 500.241 188.886 500.241 182.768V158.621H493.655V162.638H493.406C492.519 160.692 490.573 158.31 486.572 158.31C481.325 158.31 476.888 162.389 476.888 170.531C476.888 178.486 481.201 182.192 486.587 182.192C490.402 182.192 492.535 180.277 493.406 178.3H493.687V182.674C493.687 185.959 491.585 187.236 488.705 187.236C485.778 187.236 484.299 185.959 483.754 184.512L477.62 185.337C478.414 189.104 482.104 192 488.549 192ZM488.689 177.21C485.435 177.21 483.66 174.625 483.66 170.5C483.66 166.436 485.404 163.587 488.689 163.587C491.912 163.587 493.718 166.312 493.718 170.5C493.718 174.719 491.881 177.21 488.689 177.21Z" fill="#F8F8F8"/>
<path d="M514.148 182.939C516.14 182.939 517.869 181.273 517.884 179.203C517.869 177.163 516.14 175.497 514.148 175.497C512.093 175.497 510.396 177.163 510.411 179.203C510.396 181.273 512.093 182.939 514.148 182.939Z" fill="#FF57B2"/>
<path d="M100.05 146L82 167.133L100.05 188.263L104.318 181.508L92.1547 167.13L104.318 152.751L100.05 146ZM107.949 187.759H115.87L128.464 146.389H120.539L107.949 187.759ZM137.019 146L132.751 152.755L144.914 167.133L132.751 181.512L137.019 188.267L155.069 167.137L137.019 146Z" fill="#FF57B2"/>
</svg>
